<?xml version="1.0" encoding="UTF-8"?>
<svg xmlns="http://www.w3.org/2000/svg" xmlns:xlink="http://www.w3.org/1999/xlink" width="32px" height="32px" viewBox="0 0 32 32" version="1.1">
<g id="surface1">
<path style="fill-rule:nonzero;fill:rgb(100%,100%,100%);fill-opacity:1;stroke-width:11.09352;stroke-linecap:round;stroke-linejoin:round;stroke:rgb(0%,0%,0%);stroke-opacity:1;stroke-miterlimit:4;" d="M 14.235625 45.679375 L 14.235625 231.660625 C 14.235625 256.88875 30.9325 277.323125 51.529375 277.323125 C 72.166875 277.323125 88.904375 256.88875 88.904375 231.660625 L 88.904375 45.679375 C 88.904375 20.45125 72.166875 0.016875 51.529375 0.016875 C 30.9325 0.016875 14.235625 20.45125 14.235625 45.679375 Z M 14.235625 45.679375 " transform="matrix(0.0961538,0,0,0.0961538,2.666346,2.666346)"/>
<path style="fill-rule:nonzero;fill:rgb(100%,100%,100%);fill-opacity:1;stroke-width:11.09352;stroke-linecap:round;stroke-linejoin:round;stroke:rgb(0%,0%,0%);stroke-opacity:1;stroke-miterlimit:4;" d="M 225.77 0.016875 C 205.173125 0.016875 188.435625 20.45125 188.435625 45.63875 L 188.435625 231.660625 C 188.435625 256.88875 205.173125 277.323125 225.77 277.323125 C 246.4075 277.323125 263.104375 256.88875 263.104375 231.660625 L 263.104375 45.679375 C 263.104375 20.45125 246.4075 0.016875 225.77 0.016875 Z M 225.77 0.016875 " transform="matrix(0.0961538,0,0,0.0961538,2.666346,2.666346)"/>
<path style="fill-rule:nonzero;fill:rgb(100%,100%,100%);fill-opacity:1;stroke-width:1;stroke-linecap:butt;stroke-linejoin:miter;stroke:rgb(100%,100%,100%);stroke-opacity:1;stroke-miterlimit:4;" d="M 14.235625 45.679375 L 14.235625 231.660625 C 14.235625 256.88875 30.9325 277.323125 51.529375 277.323125 C 72.166875 277.323125 88.904375 256.88875 88.904375 231.660625 L 88.904375 45.679375 C 88.904375 20.45125 72.166875 0.016875 51.529375 0.016875 C 30.9325 0.016875 14.235625 20.45125 14.235625 45.679375 Z M 14.235625 45.679375 " transform="matrix(0.0961538,0,0,0.0961538,2.666346,2.666346)"/>
<path style="fill-rule:nonzero;fill:rgb(100%,100%,100%);fill-opacity:1;stroke-width:1;stroke-linecap:butt;stroke-linejoin:miter;stroke:rgb(100%,100%,100%);stroke-opacity:1;stroke-miterlimit:4;" d="M 225.77 0.016875 C 205.173125 0.016875 188.435625 20.45125 188.435625 45.63875 L 188.435625 231.660625 C 188.435625 256.88875 205.173125 277.323125 225.77 277.323125 C 246.4075 277.323125 263.104375 256.88875 263.104375 231.660625 L 263.104375 45.679375 C 263.104375 20.45125 246.4075 0.016875 225.77 0.016875 Z M 225.77 0.016875 " transform="matrix(0.0961538,0,0,0.0961538,2.666346,2.666346)"/>
</g>
</svg>
